<svg width="24" height="24" viewBox="0 0 24 24" fill="none" xmlns="http://www.w3.org/2000/svg">
<mask id="mask0_14427_7124" style="mask-type:alpha" maskUnits="userSpaceOnUse" x="0" y="0" width="24" height="24">
<rect width="24" height="24" fill="#D9D9D9"/>
</mask>
<g mask="url(#mask0_14427_7124)">
<path d="M5.65 17.45C6.63333 16.7888 7.64167 16.2819 8.675 15.9293C9.70833 15.5764 10.8167 15.4 12 15.4C13.1833 15.4 14.2944 15.5764 15.3333 15.9293C16.3723 16.2819 17.3834 16.7888 18.3668 17.45C19.0501 16.6222 19.5487 15.7583 19.8625 14.8583C20.1763 13.9583 20.3333 13.0055 20.3333 12C20.3333 9.65 19.5319 7.67358 17.9293 6.07075C16.3264 4.46808 14.35 3.66675 12 3.66675C9.65 3.66675 7.67358 4.46808 6.07075 6.07075C4.46808 7.67358 3.66675 9.65 3.66675 12C3.66675 13.0055 3.82642 13.9583 4.14575 14.8583C4.46525 15.7583 4.96667 16.6222 5.65 17.45ZM11.997 12.8333C11.0268 12.8333 10.2098 12.5003 9.54575 11.8345C8.88192 11.1685 8.55 10.3504 8.55 9.38025C8.55 8.41008 8.883 7.59308 9.549 6.92925C10.2148 6.26525 11.0328 5.93325 12.003 5.93325C12.9732 5.93325 13.7903 6.26625 14.4543 6.93225C15.1181 7.59825 15.45 8.41634 15.45 9.3865C15.45 10.3567 15.117 11.1737 14.451 11.8375C13.7852 12.5013 12.9672 12.8333 11.997 12.8333ZM11.9933 22C10.6083 22 9.30675 21.7375 8.08875 21.2125C6.87058 20.6875 5.811 19.9723 4.91 19.0668C4.00883 18.1611 3.29858 17.1008 2.77925 15.886C2.25975 14.6712 2 13.3731 2 11.9918C2 10.6104 2.2625 9.31225 2.7875 8.09725C3.3125 6.88242 4.02775 5.825 4.93325 4.925C5.83892 4.025 6.89917 3.3125 8.114 2.7875C9.32883 2.2625 10.6269 2 12.0083 2C13.3896 2 14.6878 2.2625 15.9028 2.7875C17.1176 3.3125 18.175 4.025 19.075 4.925C19.975 5.825 20.6875 6.88333 21.2125 8.1C21.7375 9.31667 22 10.6152 22 11.9955C22 13.376 21.7375 14.6733 21.2125 15.8873C20.6875 17.1013 19.975 18.1611 19.075 19.0668C18.175 19.9723 17.1159 20.6875 15.8978 21.2125C14.6798 21.7375 13.3783 22 11.9933 22Z" fill="black" fill-opacity="0.75"/>
</g>
</svg>
