<svg width="44" height="44" viewBox="0 0 44 44" fill="none" xmlns="http://www.w3.org/2000/svg">
<path d="M0 22C0 9.84974 9.84974 0 22 0C34.1503 0 44 9.84974 44 22C44 34.1503 34.1503 44 22 44C9.84974 44 0 34.1503 0 22Z" fill="#E84142"/>
<path d="M17.0177 29.4982H13.6577C12.9507 29.4982 12.6007 29.4982 12.3897 29.3662C12.2763 29.2954 12.1817 29.1982 12.114 29.0829C12.0463 28.9676 12.0074 28.8377 12.0007 28.7042C11.9877 28.4542 12.1627 28.1542 12.5127 27.5472L20.8127 13.1242C21.1687 12.5112 21.3497 12.2052 21.5757 12.0932C21.6955 12.0319 21.8281 12 21.9627 12C22.0972 12 22.2299 12.0319 22.3497 12.0932C22.5747 12.2052 22.7497 12.5112 23.0997 13.1232L24.8127 16.0612L24.8187 16.0742C25.0997 16.4892 25.3227 16.9422 25.4807 17.4172C25.5757 17.7922 25.5757 18.1992 25.4807 18.5792C25.3234 19.0595 25.1006 19.5158 24.8187 19.9352L20.4567 27.5352L20.4437 27.5612C20.2207 28.0142 19.9337 28.4362 19.5937 28.8112C19.3004 29.0859 18.9475 29.2889 18.5627 29.4042C18.2067 29.4972 17.8127 29.4972 17.0187 29.4972M25.5127 29.4972H30.3247C31.0447 29.4972 31.3997 29.4972 31.6127 29.3602C31.7255 29.289 31.8195 29.1917 31.8866 29.0764C31.9538 28.9612 31.9923 28.8315 31.9987 28.6982C32.0117 28.4542 31.8427 28.1682 31.5057 27.5972L31.4677 27.5362L29.0567 23.4732L29.0317 23.4232C28.6927 22.8612 28.5177 22.5732 28.2997 22.4612C28.181 22.3992 28.0491 22.3668 27.9152 22.3668C27.7813 22.3668 27.6493 22.3992 27.5307 22.4612C27.3067 22.5732 27.1307 22.8742 26.7807 23.4732L24.3677 27.5422V27.5552C24.0117 28.1532 23.8377 28.4552 23.8497 28.6982C23.8569 28.8322 23.8957 28.9626 23.963 29.0787C24.0302 29.1948 24.124 29.2933 24.2367 29.3662C24.4437 29.4972 24.7997 29.4972 25.5127 29.4972Z" fill="white"/>
</svg>
